<svg xmlns="http://www.w3.org/2000/svg" version="1.1" xmlns:xlink="http://www.w3.org/1999/xlink" xmlns:svgjs="http://svgjs.dev/svgjs" viewBox="0 0 800 800"><defs><linearGradient x1="50%" y1="0%" x2="50%" y2="100%" id="ffflurry-grad" gradientTransform="rotate(270)"><stop stop-color="hsl(238, 82%, 13%)" stop-opacity="1" offset="0%"></stop><stop stop-color="hsl(1.4, 100%, 67%)" stop-opacity="1" offset="45%"></stop><stop stop-color="hsl(167, 52%, 78%)" stop-opacity="1" offset="100%"></stop></linearGradient></defs><rect width="100%" height="100%" fill="hsl(238, 82%, 13%)"></rect><g fill="url(#ffflurry-grad)"><rect width="701" height="3" x="379.5" y="450.5" rx="1.5" transform="rotate(45, 730, 452)" opacity="0.49"></rect><rect width="118" height="3" x="-36" y="247.5" rx="1.5" transform="rotate(45, 23, 249)" opacity="0.95"></rect><rect width="50" height="3" x="240" y="30.5" rx="1.5" transform="rotate(45, 265, 32)" opacity="0.52"></rect><rect width="154" height="3" x="213" y="358.5" rx="1.5" transform="rotate(45, 290, 360)" opacity="0.62"></rect><rect width="141" height="3" x="473.5" y="753.5" rx="1.5" transform="rotate(45, 544, 755)" opacity="0.14"></rect><rect width="193" height="3" x="-0.5" y="403.5" rx="1.5" transform="rotate(45, 96, 405)" opacity="0.10"></rect><rect width="205" height="3" x="599.5" y="87.5" rx="1.5" transform="rotate(45, 702, 89)" opacity="0.30"></rect><rect width="253" height="3" x="-8.5" y="647.5" rx="1.5" transform="rotate(45, 118, 649)" opacity="0.23"></rect><rect width="359" height="3" x="353.5" y="28.5" rx="1.5" transform="rotate(45, 533, 30)" opacity="0.99"></rect><rect width="306" height="3" x="-5" y="291.5" rx="1.5" transform="rotate(45, 148, 293)" opacity="0.09"></rect><rect width="252" height="3" x="636" y="653.5" rx="1.5" transform="rotate(45, 762, 655)" opacity="0.67"></rect><rect width="629" height="3" x="-201.5" y="542.5" rx="1.5" transform="rotate(45, 113, 544)" opacity="0.19"></rect><rect width="353" height="3" x="116.5" y="283.5" rx="1.5" transform="rotate(45, 293, 285)" opacity="0.34"></rect><rect width="135" height="3" x="117.5" y="741.5" rx="1.5" transform="rotate(45, 185, 743)" opacity="0.13"></rect><rect width="111" height="3" x="154.5" y="258.5" rx="1.5" transform="rotate(45, 210, 260)" opacity="0.78"></rect><rect width="322" height="3" x="212" y="749.5" rx="1.5" transform="rotate(45, 373, 751)" opacity="0.48"></rect><rect width="570" height="3" x="54" y="203.5" rx="1.5" transform="rotate(45, 339, 205)" opacity="0.42"></rect><rect width="545" height="3" x="485.5" y="139.5" rx="1.5" transform="rotate(45, 758, 141)" opacity="0.57"></rect><rect width="354" height="3" x="131" y="118.5" rx="1.5" transform="rotate(45, 308, 120)" opacity="0.21"></rect><rect width="410" height="3" x="-171" y="79.5" rx="1.5" transform="rotate(45, 34, 81)" opacity="0.72"></rect><rect width="106" height="3" x="58" y="49.5" rx="1.5" transform="rotate(45, 111, 51)" opacity="0.71"></rect><rect width="370" height="3" x="464" y="30.5" rx="1.5" transform="rotate(45, 649, 32)" opacity="0.64"></rect><rect width="389" height="3" x="554.5" y="746.5" rx="1.5" transform="rotate(45, 749, 748)" opacity="0.39"></rect><rect width="246" height="3" x="-48" y="192.5" rx="1.5" transform="rotate(45, 75, 194)" opacity="0.26"></rect><rect width="345" height="3" x="529.5" y="224.5" rx="1.5" transform="rotate(45, 702, 226)" opacity="0.09"></rect><rect width="72" height="3" x="445" y="96.5" rx="1.5" transform="rotate(45, 481, 98)" opacity="0.63"></rect><rect width="535" height="3" x="360.5" y="650.5" rx="1.5" transform="rotate(45, 628, 652)" opacity="0.49"></rect><rect width="299" height="3" x="503.5" y="151.5" rx="1.5" transform="rotate(45, 653, 153)" opacity="0.50"></rect><rect width="268" height="3" x="183" y="776.5" rx="1.5" transform="rotate(45, 317, 778)" opacity="0.11"></rect><rect width="198" height="3" x="135" y="423.5" rx="1.5" transform="rotate(45, 234, 425)" opacity="0.76"></rect><rect width="152" height="3" x="77" y="159.5" rx="1.5" transform="rotate(45, 153, 161)" opacity="0.99"></rect><rect width="554" height="3" x="-212" y="312.5" rx="1.5" transform="rotate(45, 65, 314)" opacity="0.30"></rect><rect width="226" height="3" x="259" y="282.5" rx="1.5" transform="rotate(45, 372, 284)" opacity="0.98"></rect><rect width="216" height="3" x="-73" y="654.5" rx="1.5" transform="rotate(45, 35, 656)" opacity="0.19"></rect><rect width="565" height="3" x="89.5" y="585.5" rx="1.5" transform="rotate(45, 372, 587)" opacity="0.25"></rect><rect width="482" height="3" x="335" y="266.5" rx="1.5" transform="rotate(45, 576, 268)" opacity="0.16"></rect><rect width="460" height="3" x="-30" y="64.5" rx="1.5" transform="rotate(45, 200, 66)" opacity="0.37"></rect><rect width="297" height="3" x="308.5" y="568.5" rx="1.5" transform="rotate(45, 457, 570)" opacity="0.22"></rect><rect width="440" height="3" x="437" y="324.5" rx="1.5" transform="rotate(45, 657, 326)" opacity="0.25"></rect><rect width="225" height="3" x="537.5" y="750.5" rx="1.5" transform="rotate(45, 650, 752)" opacity="0.35"></rect><rect width="134" height="3" x="507" y="355.5" rx="1.5" transform="rotate(45, 574, 357)" opacity="0.76"></rect><rect width="96" height="3" x="389" y="335.5" rx="1.5" transform="rotate(45, 437, 337)" opacity="0.32"></rect><rect width="58" height="3" x="172" y="350.5" rx="1.5" transform="rotate(45, 201, 352)" opacity="0.91"></rect><rect width="476" height="3" x="42" y="723.5" rx="1.5" transform="rotate(45, 280, 725)" opacity="0.22"></rect><rect width="177" height="3" x="441.5" y="160.5" rx="1.5" transform="rotate(45, 530, 162)" opacity="0.40"></rect><rect width="165" height="3" x="675.5" y="36.5" rx="1.5" transform="rotate(45, 758, 38)" opacity="0.54"></rect><rect width="491" height="3" x="56.5" y="615.5" rx="1.5" transform="rotate(45, 302, 617)" opacity="0.75"></rect><rect width="473" height="3" x="453.5" y="607.5" rx="1.5" transform="rotate(45, 690, 609)" opacity="0.86"></rect><rect width="90" height="3" x="299" y="50.5" rx="1.5" transform="rotate(45, 344, 52)" opacity="0.68"></rect><rect width="86" height="3" x="607" y="256.5" rx="1.5" transform="rotate(45, 650, 258)" opacity="0.23"></rect><rect width="256" height="3" x="293" y="36.5" rx="1.5" transform="rotate(45, 421, 38)" opacity="0.39"></rect><rect width="308" height="3" x="105" y="219.5" rx="1.5" transform="rotate(45, 259, 221)" opacity="0.97"></rect><rect width="161" height="3" x="515.5" y="199.5" rx="1.5" transform="rotate(45, 596, 201)" opacity="0.93"></rect><rect width="89" height="3" x="163.5" y="513.5" rx="1.5" transform="rotate(45, 208, 515)" opacity="0.09"></rect><rect width="131" height="3" x="461.5" y="657.5" rx="1.5" transform="rotate(45, 527, 659)" opacity="0.99"></rect><rect width="339" height="3" x="459.5" y="421.5" rx="1.5" transform="rotate(45, 629, 423)" opacity="0.11"></rect><rect width="545" height="3" x="178.5" y="756.5" rx="1.5" transform="rotate(45, 451, 758)" opacity="0.58"></rect><rect width="697" height="3" x="231.5" y="531.5" rx="1.5" transform="rotate(45, 580, 533)" opacity="1.00"></rect><rect width="193" height="3" x="-63.5" y="578.5" rx="1.5" transform="rotate(45, 33, 580)" opacity="0.93"></rect><rect width="206" height="3" x="111" y="626.5" rx="1.5" transform="rotate(45, 214, 628)" opacity="0.26"></rect><rect width="358" height="3" x="173" y="362.5" rx="1.5" transform="rotate(45, 352, 364)" opacity="0.75"></rect><rect width="528" height="3" x="-21" y="154.5" rx="1.5" transform="rotate(45, 243, 156)" opacity="0.10"></rect><rect width="318" height="3" x="171" y="492.5" rx="1.5" transform="rotate(45, 330, 494)" opacity="0.38"></rect><rect width="376" height="3" x="563" y="333.5" rx="1.5" transform="rotate(45, 751, 335)" opacity="0.16"></rect><rect width="343" height="3" x="330.5" y="252.5" rx="1.5" transform="rotate(45, 502, 254)" opacity="0.99"></rect><rect width="194" height="3" x="-63" y="721.5" rx="1.5" transform="rotate(45, 34, 723)" opacity="0.91"></rect><rect width="197" height="3" x="335.5" y="216.5" rx="1.5" transform="rotate(45, 434, 218)" opacity="0.78"></rect><rect width="229" height="3" x="294.5" y="676.5" rx="1.5" transform="rotate(45, 409, 678)" opacity="0.76"></rect><rect width="422" height="3" x="178" y="420.5" rx="1.5" transform="rotate(45, 389, 422)" opacity="0.39"></rect><rect width="46" height="3" x="722" y="543.5" rx="1.5" transform="rotate(45, 745, 545)" opacity="0.12"></rect><rect width="109" height="3" x="346.5" y="137.5" rx="1.5" transform="rotate(45, 401, 139)" opacity="0.86"></rect><rect width="142" height="3" x="697" y="227.5" rx="1.5" transform="rotate(45, 768, 229)" opacity="0.37"></rect><rect width="208" height="3" x="405" y="350.5" rx="1.5" transform="rotate(45, 509, 352)" opacity="0.57"></rect><rect width="436" height="3" x="371" y="88.5" rx="1.5" transform="rotate(45, 589, 90)" opacity="0.68"></rect><rect width="521" height="3" x="-178.5" y="761.5" rx="1.5" transform="rotate(45, 82, 763)" opacity="0.85"></rect><rect width="298" height="3" x="332" y="455.5" rx="1.5" transform="rotate(45, 481, 457)" opacity="0.46"></rect><rect width="228" height="3" x="-72" y="470.5" rx="1.5" transform="rotate(45, 42, 472)" opacity="0.88"></rect></g></svg>