<svg xmlns="http://www.w3.org/2000/svg" version="1.1" xmlns:xlink="http://www.w3.org/1999/xlink" xmlns:svgjs="http://svgjs.dev/svgjs" viewBox="0 0 800 800"><g fill="hsl(158, 60%, 57%)"><path d="M187 660H237C265 660 287 682 287 710H237C209 710 187 688 187 660Z " transform="matrix(-0.1722319561863163,-0.4486795856517939,0.4486795856517939,-0.1722319561863163,-29.526542555321896,909.3159517871018)"></path><path d="M250 422H300C328 422 350 444 350 472H300C272 472 250 450 250 422Z " transform="matrix(-0.24603792053446766,-0.3937429796847666,0.3937429796847666,-0.24603792053446766,197.80826424124962,675.101844384337)"></path><path d="M167 215H217C245 215 267 237 267 265H217C189 265 167 243 167 215Z " transform="matrix(-0.15003514677323357,-0.4617607012216536,0.4617607012216536,-0.15003514677323357,138.73505855659482,376.2105073906748)"></path><path d="M505 312H555C583 312 605 334 605 362H555C527 362 505 340 505 312Z " transform="matrix(-0.383455874347048,-0.12459236621156645,0.12459236621156645,-0.383455874347048,725.8303828493138,535.3733929023745)"></path><path d="M1 719H51C79 719 101 741 101 769H51C23 769 1 747 1 719Z " transform="matrix(0.017978152815700168,-0.5148269375893478,0.5148269375893478,0.017978152815700168,-332.94812736007555,756.8804281221759)"></path><path d="M101 307H151C179 307 201 329 201 357H151C123 357 101 335 101 307Z " transform="matrix(-0.0611602805817914,-0.498110512690238,0.498110512690238,-0.0611602805817914,-5.137487845308499,427.5199005693807)"></path><path d="M146 416H196C224 416 246 438 246 466H196C168 466 146 444 146 416Z " transform="matrix(-0.1027914288806375,-0.48359565130815924,0.48359565130815924,-0.1027914288806375,2.881437833706741,581.1157677927604)"></path><path d="M604 319H654C682 319 704 341 704 369H654C626 369 604 347 604 319Z " transform="matrix(-0.3776320339194542,-0.16029528819281946,0.16029528819281946,-0.3776320339194542,845.8297710449933,578.7385381463962)"></path><path d="M620 424H670C698 424 720 446 720 474H670C642 474 620 452 620 424Z " transform="matrix(-0.37383183664791575,-0.1743206482910715,0.1743206482910715,-0.37383183664791575,842.1973594714125,733.6453290099321)"></path><path d="M376 726H426C454 726 476 748 476 776H426C398 776 376 754 376 726Z " transform="matrix(-0.36471364851630245,-0.21056752314801785,0.21056752314801785,-0.36471364851630245,423.23180438378347,1114.6017148967987)"></path><path d="M280 180H330C358 180 380 202 380 230H330C302 230 280 208 280 180Z " transform="matrix(-0.28490351616889886,-0.3518265420038115,0.3518265420038115,-0.28490351616889886,351.89371922495525,379.5079796758821)"></path><path d="M345 251H395C423 251 445 273 445 301H395C367 301 345 279 345 251Z " transform="matrix(-0.34832161758435964,-0.2530704685986571,0.2530704685986571,-0.34832161758435964,462.7395896125927,472.09960154975283)"></path><path d="M704 360H754C782 360 804 382 804 410H754C726 410 704 388 704 360Z " transform="matrix(-0.35983778806132455,-0.2248516054183657,0.2248516054183657,-0.35983778806132455,938.7498241121677,693.0756588890575)"></path><path d="M263 571H313C341 571 363 593 363 621H313C285 621 263 599 263 571Z " transform="matrix(-0.263001048300345,-0.375604422901224,0.375604422901224,-0.263001048300345,171.4590920688785,870.3128091550888)"></path><path d="M490 112H540C568 112 590 134 590 162H540C512 162 490 140 490 112Z " transform="matrix(-0.37114850429287705,-0.18910960847901281,0.18910960847901281,-0.37114850429287705,714.5121759565288,289.96653366679107)"></path><path d="M700 717H750C778 717 800 739 800 767H750C722 767 700 745 700 717Z " transform="matrix(-0.3617999376716658,-0.21739133451352985,0.21739133451352985,-0.3617999376716658,860.0455830447103,1173.4990546375234)"></path><path d="M154 577H204C232 577 254 599 254 627H204C176 627 154 605 154 577Z " transform="matrix(-0.1268552945866021,-0.47343040460631647,0.47343040460631647,-0.1268552945866021,-55.12662347733573,774.946689880823)"></path><path d="M363 610H413C441 610 463 632 463 660H413C385 660 363 638 363 610Z " transform="matrix(-0.3569790599217529,-0.23182491212569545,0.23182491212569545,-0.3569790599217529,413.22353254786736,957.4253917582253)"></path><path d="M489 726H539C567 726 589 748 589 776H539C511 776 489 754 489 726Z " transform="matrix(-0.3815579728986138,-0.1313809461398225,0.1313809461398225,-0.3815579728986138,645.9926568413462,1108.3643676162233)"></path><path d="M439 220H489C517 220 539 242 539 270H489C461 270 439 248 439 220Z " transform="matrix(-0.3781519428071455,-0.15278330224460307,0.15278330224460307,-0.3781519428071455,636.4843909827664,412.3582607853615)"></path><path d="M76 639H126C154 639 176 661 176 689H126C98 689 76 667 76 639Z " transform="matrix(-0.026575885724116958,-0.5070981080993159,0.5070981080993159,-0.026575885724116958,-207.36458217670707,745.5407497413274)"></path><path d="M-8 367H42C70 367 92 389 92 417H42C14 417 -8 395 -8 367Z " transform="matrix(0.01801007678059707,-0.5157411203339304,0.5157411203339304,0.01801007678059707,-160.92694239568576,406.601176956031)"></path><path d="M626 214H676C704 214 726 236 726 264H676C648 264 626 242 626 214Z " transform="matrix(-0.37383183664791575,-0.1743206482910715,0.1743206482910715,-0.37383183664791575,887.047686632425,446.18656720361616)"></path><path d="M385 135H435C463 135 485 157 485 185H435C407 185 385 163 385 135Z " transform="matrix(-0.3664223347429902,-0.20311121680249583,0.20311121680249583,-0.3664223347429902,561.8959209248014,306.9809528679641)"></path><path d="M8 99H58C86 99 108 121 108 149H58C30 149 8 127 8 99Z " transform="matrix(-0.20728209636994893,-0.4249912784779158,0.4249912784779158,-0.20728209636994893,17.32344305819548,174.35247410159278)"></path><path d="M322 485H372C400 485 422 507 422 535H372C344 535 322 513 322 485Z " transform="matrix(-0.3338239231224884,-0.28011153077023265,0.28011153077023265,-0.3338239231224884,353.325618708747,784.4516902389955)"></path><path d="M611 528H661C689 528 711 550 711 578H661C633 578 611 556 611 528Z " transform="matrix(-0.3776320339194542,-0.16029528819281946,0.16029528819281946,-0.3776320339194542,821.9714800501301,867.7857002529117)"></path><path d="M81 517H131C159 517 181 539 181 567H131C103 567 81 545 81 517Z " transform="matrix(-0.026575885724116958,-0.5070981080993159,0.5070981080993159,-0.026575885724116958,-140.3657335599699,622.8339822234818)"></path><path d="M703 130H753C781 130 803 152 803 180H753C725 180 703 158 703 130Z " transform="matrix(-0.3339599702467841,-0.28022568786205193,0.28022568786205193,-0.3339599702467841,961.0368759772102,417.77373834837664)"></path><path d="M427 25H477C505 25 527 47 527 75H477C449 75 427 53 427 25Z " transform="matrix(-0.3686677087253156,-0.1960240978782772,0.1960240978782772,-0.3686677087253156,643.0532921680617,161.93688012420404)"></path><path d="M553 19H603C631 19 653 41 653 69H603C575 69 553 47 553 19Z " transform="matrix(-0.2851075868682493,-0.3520785483301715,0.3520785483301715,-0.2851075868682493,759.4284187550268,268.8480984652964)"></path></g><g fill="none" stroke-width="3" stroke="hsl(158, 60%, 57%)"><path d="M686 23H736C764 23 786 45 786 73H736C708 73 686 51 686 23Z " transform="matrix(-0.17914799432797848,-0.4434068455770763,0.4434068455770763,-0.17914799432797848,846.5693952376924,382.9465420724711)"></path><path d="M291 668H341C369 668 391 690 391 718H341C313 718 291 696 291 668Z " transform="matrix(-0.3048086751839984,-0.32686728581139646,0.32686728581139646,-0.3048086751839984,218.42072917044572,1015.694156364197)"></path><path d="M695 605H745C773 605 795 627 795 655H745C717 655 695 633 695 605Z " transform="matrix(-0.3617999376716658,-0.21739133451352985,0.21739133451352985,-0.3617999376716658,877.5844128218672,1019.8905049457292)"></path><path d="M-6 596H44C72 596 94 618 94 646H44C16 646 -6 624 -6 596Z " transform="matrix(0.01801007678059707,-0.5157411203339304,0.5157411203339304,0.01801007678059707,-277.067679105717,632.5083516139422)"></path><path d="M511 523H561C589 523 611 545 611 573H561C533 573 511 551 511 523Z " transform="matrix(-0.383455874347048,-0.12459236621156645,0.12459236621156645,-0.383455874347048,707.8421288247555,828.0301365868711)"></path><path d="M415 427H465C493 427 515 449 515 477H465C437 477 415 455 415 427Z " transform="matrix(-0.3747285544208854,-0.17473879465581094,0.17473879465581094,-0.3747285544208854,560.2668426212852,702.6308461131923)"></path><path d="M318 360H368C396 360 418 382 418 410H368C340 410 318 388 318 360Z " transform="matrix(-0.3338239231224884,-0.28011153077023265,0.28011153077023265,-0.3338239231224884,383.00426436253616,616.6032537256037)"></path><path d="M600 110H650C678 110 700 132 700 160H650C622 160 600 138 600 110Z " transform="matrix(-0.3475492215692685,-0.25250929004523154,0.25250929004523154,-0.3475492215692685,841.8182398639183,346.05018344125176)"></path><path d="M598 725H648C676 725 698 747 698 775H648C620 775 598 753 598 725Z " transform="matrix(-0.3784902391580481,-0.15291998284247205,0.15291998284247205,-0.3784902391580481,778.5716878425611,1132.959828250458)"></path><path d="M96 19H146C174 19 196 41 196 69H146C118 69 96 47 96 19Z " transform="matrix(-0.38289709289056584,-0.12441080711046569,0.12441080711046569,-0.38289709289056584,196.4289000491621,79.01144992531289)"></path><path d="M536 209H586C614 209 636 231 636 259H586C558 259 536 237 536 209Z " transform="matrix(-0.38195561395624966,-0.13151786493614423,0.13151786493614423,-0.38195561395624966,779.0508093833046,400.447082518343)"></path><path d="M241 740H291C319 740 341 762 341 790H291C263 790 241 768 241 740Z " transform="matrix(-0.24603792053446766,-0.3937429796847666,0.3937429796847666,-0.24603792053446766,61.38365541668361,1067.7982162971348)"></path><path d="M413 328H463C491 328 513 350 513 378H463C435 378 413 356 413 328Z " transform="matrix(-0.3747285544208854,-0.17473879465581094,0.17473879465581094,-0.3747285544208854,574.8165261833688,566.183241636213)"></path><path d="M198 336H248C276 336 298 358 298 386H248C220 386 198 364 198 336Z " transform="matrix(-0.1722319561863163,-0.4486795856517939,0.4486795856517939,-0.1722319561863163,128.74019471390883,534.448273424905)"></path><path d="M-11 183H39C67 183 89 205 89 233H39C11 233 -11 211 -11 183Z " transform="matrix(0.01801007678059707,-0.5157411203339304,0.5157411203339304,0.01801007678059707,-68.9765460239008,224.36780772265908)"></path><path d="M707 484H757C785 484 807 506 807 534H757C729 534 707 512 707 484Z " transform="matrix(-0.35983778806132455,-0.2248516054183657,0.2248516054183657,-0.35983778806132455,914.9477384044745,862.370099424917)"></path><path d="M316 13H366C394 13 416 35 416 63H366C338 63 316 41 316 13Z " transform="matrix(-0.3834933498781379,-0.10996494854674407,0.10996494854674407,-0.3834933498781379,502.1798980106222,92.81991846347756)"></path><path d="M112 110H162C190 110 212 132 212 160H162C134 160 112 138 112 110Z " transform="matrix(-0.20068258038554918,-0.43036518246252536,0.43036518246252536,-0.20068258038554918,136.41127839001803,231.81130791097826)"></path><path d="M205 119H255C283 119 305 141 305 169H255C227 169 205 147 205 119Z " transform="matrix(-0.27434443155964955,-0.364067357241628,0.364067357241628,-0.27434443155964955,272.53213060491623,276.34277424120467)"></path><path d="M413 528H463C491 528 513 550 513 578H463C435 578 413 556 413 528Z " transform="matrix(-0.3747285544208854,-0.17473879465581094,0.17473879465581094,-0.3747285544208854,539.8687672522065,841.1289525203902)"></path><path d="M202 22H252C280 22 302 44 302 72H252C224 72 202 50 202 22Z " transform="matrix(-0.38430907782244866,-0.10297530704647442,0.10297530704647442,-0.38430907782244866,344.00604818007275,91.01230403336663)"></path><path d="M1 274H51C79 274 101 296 101 324H51C23 324 1 302 1 274Z " transform="matrix(0.017978152815700168,-0.5148269375893478,0.5148269375893478,0.017978152815700168,-103.85014013281571,319.88070612516236)"></path><path d="M196 497H246C274 497 296 519 296 547H246C218 547 196 525 196 497Z " transform="matrix(-0.1722319561863163,-0.4486795856517939,0.4486795856517939,-0.1722319561863163,54.1583175115974,722.2802591995984)"></path><path d="M115 733H165C193 733 215 755 215 783H165C137 783 115 761 115 733Z " transform="matrix(-0.0611602805817914,-0.498110512690238,0.498110512690238,-0.0611602805817914,-202.47632232320484,886.5477272748872)"></path><path d="M465 628H515C543 628 565 650 565 678H515C487 678 465 656 465 628Z " transform="matrix(-0.38138575178779416,-0.1388130614239951,0.1388130614239951,-0.38138575178779416,620.7687330608452,973.5336225507871)"></path><path d="M64 410H114C142 410 164 432 164 460H114C86 460 64 438 64 410Z " transform="matrix(-0.017805474768259034,-0.5098820852864188,0.5098820852864188,-0.017805474768259034,-105.76888297601062,500.8719392468444)"></path><path d="M-8 482H42C70 482 92 504 92 532H42C14 532 -8 510 -8 482Z " transform="matrix(0.01801007678059707,-0.5157411203339304,0.5157411203339304,0.01801007678059707,-220.23717123408773,519.5300181262623)"></path><path d="M520 416H570C598 416 620 438 620 466H570C542 466 520 444 520 416Z " transform="matrix(-0.38136627649662985,-0.13131493977525116,0.13131493977525116,-0.38136627649662985,729.4688891621932,684.0320436069069)"></path><path d="M-3 17H47C75 17 97 39 97 67H47C19 67 -3 45 -3 17Z " transform="matrix(-0.38272556219949333,-0.1317829793770969,0.1317829793770969,-0.38272556219949333,59.45321628953812,64.26827364310228)"></path><path d="M576 627H626C654 627 676 649 676 677H626C598 677 576 655 576 627Z " transform="matrix(-0.3794562914693053,-0.14565962316298242,0.14565962316298242,-0.3794562914693053,768.5695641575205,990.5884261380139)"></path><path d="M302 89H352C380 89 402 111 402 139H352C324 139 302 117 302 89Z " transform="matrix(-0.359049999943756,-0.22435934076789882,0.22435934076789882,-0.359049999943756,452.80863513266166,233.90618794388854)"></path><path d="M707 248H757C785 248 807 270 807 298H757C729 298 707 276 707 248Z " transform="matrix(-0.35983778806132455,-0.2248516054183657,0.2248516054183657,-0.35983778806132455,968.0127172832088,541.4483814424445)"></path><path d="M75 200H125C153 200 175 222 175 250H125C97 250 75 228 75 200Z " transform="matrix(-0.026575885724116958,-0.5070981080993159,0.5070981080993159,-0.026575885724116958,14.224911393168554,294.3668378003408)"></path><path d="M249 269H299C327 269 349 291 349 319H299C271 319 249 297 249 269Z " transform="matrix(-0.24603792053446766,-0.3937429796847666,0.3937429796847666,-0.24603792053446766,256.8049022124844,484.0642995628787)"></path></g></svg>