<svg xmlns="http://www.w3.org/2000/svg" version="1.1" xmlns:xlink="http://www.w3.org/1999/xlink" xmlns:svgjs="http://svgjs.dev/svgjs" viewBox="0 0 800 800"><g fill="hsl(180, 69%, 30%)"><path d="M367 720H417C445 720 467 742 467 770H417C389 770 367 748 367 720Z " transform="matrix(-0.3545144070644647,0.06251045501532874,-0.06251045501532874,-0.3545144070644647,611.4027967323017,983.046373521634)"></path><path d="M110 167H160C188 167 210 189 210 217H160C132 217 110 195 110 167Z " transform="matrix(-0.3686878263541734,0.02578116429932999,-0.02578116429932999,-0.3686878263541734,223.94003576213913,258.6630763721085)"></path><path d="M-8 475H42C70 475 92 497 92 525H42C14 525 -8 503 -8 475Z " transform="matrix(-0.3737402446326585,0.00652366023635095,-0.00652366023635095,-0.3737402446326585,60.95892039274713,686.5961285864025)"></path><path d="M422 151H472C500 151 522 173 522 201H472C444 201 422 179 422 151Z " transform="matrix(-0.3516051241582822,0.06834511272829284,-0.06834511272829284,-0.3516051241582822,649.9863584428888,205.62360864410346)"></path><path d="M11 23H61C89 23 111 45 111 73H61C33 73 11 51 11 23Z " transform="matrix(-0.3731385199605654,0.0065131570931306546,-0.0065131570931306546,-0.3731385199605654,84.07408125806477,65.51334637542618)"></path></g><g fill="none" stroke-width="3" stroke="hsl(180, 69%, 30%)"><path d="M-6 608H44C72 608 94 630 94 658H44C16 658 -6 636 -6 608Z " transform="matrix(-0.3737402446326585,0.00652366023635095,-0.00652366023635095,-0.3737402446326585,64.57404769344713,869.2905338020735)"></path><path d="M87 419H137C165 419 187 441 187 469H137C109 469 87 447 87 419Z " transform="matrix(-0.3696819488349662,0.01937420997946743,-0.01937420997946743,-0.3696819488349662,196.24857622127388,605.484518515538)"></path><path d="M484 500H534C562 500 584 522 584 550H534C506 550 484 528 484 500Z " transform="matrix(-0.3466750663442004,0.08003624547522005,-0.08003624547522005,-0.3466750663442004,761.1435143022934,664.2650547469377)"></path></g></svg>