<svg xmlns="http://www.w3.org/2000/svg" version="1.1" xmlns:xlink="http://www.w3.org/1999/xlink" xmlns:svgjs="http://svgjs.dev/svgjs" viewBox="0 0 800 800"><defs><filter id="llleaves-blur-2" x="-100%" y="-100%" width="400%" height="400%"><feGaussianBlur in="SourceGraphic" stdDeviation="2"></feGaussianBlur></filter><filter id="llleaves-blur-3" x="-100%" y="-100%" width="400%" height="400%"><feGaussianBlur in="SourceGraphic" stdDeviation="4"></feGaussianBlur></filter><filter id="llleaves-blur-4" x="-100%" y="-100%" width="400%" height="400%"><feGaussianBlur in="SourceGraphic" stdDeviation="12"></feGaussianBlur></filter></defs><g fill="hsl(190, 100%, 70%)"><path d="M436 478H486C514 478 536 500 536 528H486C458 528 436 506 436 478Z " transform="matrix(-0.3825137435720283,-0.04020381449674894,0.04020381449674894,-0.3825137435720283,651.6791606841409,714.9434668621502)" filter="url(#llleaves-blur-2)" opacity="0.59"></path><path d="M249 516H299C327 516 349 538 349 566H299C271 566 249 544 249 516Z " transform="matrix(-0.22030293320471217,-0.41432955687152745,0.41432955687152745,-0.22030293320471217,140.7182867607126,784.0684243683361)" opacity="0.72"></path><path d="M3 252H53C81 252 103 274 103 302H53C25 302 3 280 3 252Z " transform="matrix(0.017978202761091012,-0.5148283678382103,0.5148283678382103,0.017978202761091012,-90.56030263752208,299.30594133060293)" opacity="0.79"></path><path d="M503 648H553C581 648 603 670 603 698H553C525 698 503 676 503 648Z " transform="matrix(-0.3275114292938426,0.1127712287738359,-0.1127712287738359,-0.3275114292938426,810.0088573642865,831.0527024028248)" filter="url(#llleaves-blur-2)" opacity="0.53"></path><path d="M545 345H595C623 345 645 367 645 395H595C567 395 545 373 545 345Z " transform="matrix(-0.276533512781526,0.17279731691300187,-0.17279731691300187,-0.276533512781526,823.4724473628186,369.5029961659285)" filter="url(#llleaves-blur-2)" opacity="0.50"></path><path d="M587 123H637C665 123 687 145 687 173H637C609 173 587 151 587 123Z " transform="matrix(-0.19214053924366786,0.22898417792662992,-0.22898417792662992,-0.19214053924366786,793.2831818313576,30.57387846879959)" filter="url(#llleaves-blur-3)" opacity="0.46"></path><path d="M-3 370H47C75 370 97 392 97 420H47C19 420 -3 398 -3 370Z " transform="matrix(0.018010194180075132,-0.5157444822151194,0.5157444822151194,0.018010194180075132,-157.5655496014357,412.1259639629809)" opacity="0.79"></path><path d="M176 385H226C254 385 276 407 276 435H226C198 435 176 413 176 385Z " transform="matrix(-0.13450409392276716,-0.469071519901993,0.469071519901993,-0.13450409392276716,64.07860206672828,571.156842006185)" opacity="0.75"></path><path d="M705 600H755C783 600 805 622 805 650H755C727 650 705 628 705 600Z " transform="matrix(0.0238315851647783,0.22674238677954497,-0.22674238677954497,0.0238315851647783,878.721144937808,438.9147572534571)" filter="url(#llleaves-blur-3)" opacity="0.35"></path><path d="M420 575H470C498 575 520 597 520 625H470C442 625 420 603 420 575Z " transform="matrix(-0.3848970031289232,-0.08181238358217956,0.08181238358217956,-0.3848970031289232,601.8141613212862,869.3900221609784)" filter="url(#llleaves-blur-2)" opacity="0.60"></path><path d="M304 217H354C382 217 404 239 404 267H354C326 267 304 245 304 217Z " transform="matrix(-0.30433461071450385,-0.32635891390777605,0.32635891390777605,-0.30433461071450385,382.7555950272526,431.18003131626267)" opacity="0.69"></path><path d="M93 311H143C171 311 193 333 193 361H143C115 361 93 339 93 311Z " transform="matrix(-0.044047918529423156,-0.5034700126190768,0.5034700126190768,-0.044047918529423156,-19.86707189030227,422.79631243041416)" opacity="0.78"></path><path d="M314 616H364C392 616 414 638 414 666H364C336 666 314 644 314 616Z " transform="matrix(-0.30433461071450385,-0.32635891390777605,0.32635891390777605,-0.30433461071450385,265.58173448519494,954.8731301304274)" opacity="0.69"></path><path d="M421 200H471C499 200 521 222 521 250H471C443 250 421 228 421 200Z " transform="matrix(-0.3848970031289232,-0.08181238358217956,0.08181238358217956,-0.3848970031289232,633.8787021677324,350.1354583712143)" filter="url(#llleaves-blur-2)" opacity="0.60"></path><path d="M698 112H748C776 112 798 134 798 162H748C720 162 698 140 698 112Z " transform="matrix(-0.021299746272344162,0.24345721392843958,-0.24345721392843958,-0.021299746272344162,797.2858485199097,-42.18793077916166)" filter="url(#llleaves-blur-3)" opacity="0.37"></path><path d="M470 734H520C548 734 570 756 570 784H520C492 784 470 762 470 734Z " transform="matrix(-0.3639879982352774,0.03825668020040332,-0.03825668020040332,-0.3639879982352774,738.3105793544504,1015.3734169563656)" filter="url(#llleaves-blur-2)" opacity="0.56"></path><path d="M296 29H346C374 29 396 51 396 79H346C318 79 296 57 296 29Z " transform="matrix(-0.3848085259313644,-0.10310913376391964,0.10310913376391964,-0.3848085259313644,473.5758567490004,110.45542068260987)" filter="url(#llleaves-blur-2)" opacity="0.61"></path><path d="M273 719H323C351 719 373 741 373 769H323C295 769 273 747 273 719Z " transform="matrix(-0.26288772231458646,-0.3754425766205509,0.3754425766205509,-0.26288772231458646,128.58345730192158,1060.8564176504901)" opacity="0.70"></path><path d="M706 490H756C784 490 806 512 806 540H756C728 540 706 518 706 490Z " transform="matrix(0.0238315851647783,0.22674238677954497,-0.22674238677954497,0.0238315851647783,854.7556508068933,331.30948923480315)" filter="url(#llleaves-blur-3)" opacity="0.35"></path><path d="M400 659H450C478 659 500 681 500 709H450C422 709 400 687 400 659Z " transform="matrix(-0.37765800019912327,-0.16030631022460962,0.16030631022460962,-0.37765800019912327,510.29658389597256,1014.4559117372746)" opacity="0.63"></path><path d="M341 513H391C419 513 441 535 441 563H391C363 563 341 541 341 513Z " transform="matrix(-0.34110887650365707,-0.26650346228616195,0.26650346228616195,-0.34110887650365707,380.9947080029748,825.719429312857)" opacity="0.66"></path><path d="M184 723H234C262 723 284 745 284 773H234C206 773 184 751 184 723Z " transform="matrix(-0.15746929690477576,-0.45732404497081364,0.45732404497081364,-0.15746929690477576,-71.23057016245104,972.8008606079427)" opacity="0.74"></path><path d="M705 384H755C783 384 805 406 805 434H755C727 434 705 412 705 384Z " transform="matrix(0.0238315851647783,0.22674238677954497,-0.22674238677954497,0.0238315851647783,829.7447893934262,228.06237964904923)" filter="url(#llleaves-blur-3)" opacity="0.35"></path><path d="M621 296H671C699 296 721 318 721 346H671C643 346 621 324 621 296Z " transform="matrix(-0.11175728631683643,0.2510109748193572,-0.2510109748193572,-0.11175728631683643,826.5636620356111,188.4457248039158)" filter="url(#llleaves-blur-3)" opacity="0.42"></path><path d="M222 615H272C300 615 322 637 322 665H272C244 665 222 643 222 615Z " transform="matrix(-0.20045519818538884,-0.4298775597606808,0.4298775597606808,-0.20045519818538884,51.40217565959003,885.218023093554)" opacity="0.73"></path><path d="M102 46H152C180 46 202 68 202 96H152C124 96 102 74 102 46Z " transform="matrix(-0.3507505010286507,-0.24559814485109357,0.24559814485109357,-0.3507505010286507,187.87660787192726,133.23420359040043)" opacity="0.66"></path><path d="M710 286H760C788 286 810 308 810 336H760C732 336 710 314 710 286Z " transform="matrix(0.0238315851647783,0.22674238677954497,-0.22674238677954497,0.0238315851647783,812.4048775632069,131.26416306129974)" filter="url(#llleaves-blur-3)" opacity="0.35"></path><path d="M704 20H754C782 20 804 42 804 70H754C726 70 704 48 704 20Z " transform="matrix(-0.043786968482733835,0.24832823829230208,-0.24832823829230208,-0.043786968482733835,798.1901449591348,-140.26907809067274)" filter="url(#llleaves-blur-3)" opacity="0.39"></path><path d="M161 506H211C239 506 261 528 261 556H211C183 556 161 534 161 506Z " transform="matrix(-0.1106789285098039,-0.47940310863183583,0.47940310863183583,-0.1106789285098039,-20.20979676793624,690.9245669600232)" opacity="0.76"></path><path d="M267 317H317C345 317 367 339 367 367H317C289 367 267 345 267 317Z " transform="matrix(-0.26288772231458646,-0.3754425766205509,0.3754425766205509,-0.26288772231458646,271.9340467694955,550.9228978203032)" opacity="0.70"></path><path d="M-7 723H43C71 723 93 745 93 773H43C15 773 -7 751 -7 723Z " transform="matrix(0.018010194180075132,-0.5157444822151194,0.5157444822151194,0.018010194180075132,-343.55131104665253,756.7053874885539)" opacity="0.79"></path><path d="M682 199H732C760 199 782 221 782 249H732C704 249 682 227 682 199Z " transform="matrix(-0.021415901506743336,0.2447848743328616,-0.2447848743328616,-0.021415901506743336,802.5082517534971,49.6146339258558)" filter="url(#llleaves-blur-3)" opacity="0.38"></path><path d="M621 414H671C699 414 721 436 721 464H671C643 464 621 442 621 414Z " transform="matrix(-0.11175728631683643,0.2510109748193572,-0.2510109748193572,-0.11175728631683643,856.182957064295,319.6330845893025)" filter="url(#llleaves-blur-3)" opacity="0.42"></path><path d="M196 29H246C274 29 296 51 296 79H246C218 79 196 57 196 29Z " transform="matrix(-0.37698277674936437,-0.1600196948748728,0.1600196948748728,-0.37698277674936437,330.09669955710046,113.72191488368438)" opacity="0.63"></path><path d="M73 547H123C151 547 173 569 173 597H123C95 597 73 575 73 547Z " transform="matrix(-0.026586572311892383,-0.5073020203413842,0.5073020203413842,-0.026586572311892383,-163.90660724090895,649.6056678643927)" opacity="0.78"></path><path d="M358 407H408C436 407 458 429 458 457H408C380 457 358 435 358 407Z " transform="matrix(-0.3570095937349155,-0.2318447410158125,0.2318447410158125,-0.3570095937349155,453.5029861250145,680.8207988279349)" opacity="0.65"></path><path d="M476 278H526C554 278 576 300 576 328H526C498 328 476 306 476 278Z " transform="matrix(-0.3639879982352774,0.03825668020040332,-0.03825668020040332,-0.3639879982352774,729.049461172478,393.1653496798769)" filter="url(#llleaves-blur-2)" opacity="0.56"></path><path d="M703 727H753C781 727 803 749 803 777H753C725 777 703 755 703 727Z " transform="matrix(0.0238315851647783,0.22674238677954497,-0.22674238677954497,0.0238315851647783,905.5650912291397,563.3416307110894)" filter="url(#llleaves-blur-3)" opacity="0.35"></path><path d="M-6 486H44C72 486 94 508 94 536H44C16 536 -6 514 -6 486Z " transform="matrix(0.018010194180075132,-0.5157444822151194,0.5157444822151194,0.018010194180075132,-220.3378789558493,524.4895479914469)" opacity="0.79"></path></g><g fill="none" stroke-width="3" stroke="hsl(190, 100%, 70%)"><path d="M452 378H502C530 378 552 400 552 428H502C474 428 452 406 452 378Z " transform="matrix(-0.3754449758833033,4.597874879714426e-17,-4.597874879714426e-17,-0.3754449758833033,690.4733778934183,554.3043252809713)" filter="url(#llleaves-blur-2)" opacity="0.58"></path><path d="M554 214H604C632 214 654 236 654 264H604C576 264 554 242 554 214Z " transform="matrix(-0.24540911538377688,0.19872838323829387,-0.19872838323829387,-0.24540911538377688,799.7231892857535,177.6208351007932)" filter="url(#llleaves-blur-2)" opacity="0.48"></path><path d="M590 610H640C668 610 690 632 690 660H640C612 660 590 638 590 610Z " transform="matrix(-0.18170078897659214,0.23256640441346954,-0.23256640441346954,-0.18170078897659214,903.9681717475721,601.5375021755156)" filter="url(#llleaves-blur-3)" opacity="0.45"></path><path d="M515 546H565C593 546 615 568 615 596H565C537 596 515 574 515 546Z " transform="matrix(-0.3275114292938426,0.1127712287738359,-0.1127712287738359,-0.3275114292938426,814.4363291808814,694.2932818695668)" filter="url(#llleaves-blur-2)" opacity="0.53"></path><path d="M4 138H54C82 138 104 160 104 188H54C26 188 4 166 4 138Z " transform="matrix(-0.09459450258456818,-0.4866465281601524,0.4866465281601524,-0.09459450258456818,-20.215280950538173,204.69781644193284)" opacity="0.76"></path><path d="M617 520H667C695 520 717 542 717 570H667C639 570 617 548 617 520Z " transform="matrix(-0.11175728631683643,0.2510109748193572,-0.2510109748193572,-0.11175728631683643,878.3430912498795,438.4834008381646)" filter="url(#llleaves-blur-3)" opacity="0.42"></path><path d="M185 255H235C263 255 285 277 285 305H235C207 305 185 283 185 255Z " transform="matrix(-0.15746929690477576,-0.45732404497081364,0.45732404497081364,-0.15746929690477576,143.9545521807945,431.56255370147835)" opacity="0.74"></path><path d="M404 26H454C482 26 504 48 504 76H454C426 76 404 54 404 26Z " transform="matrix(-0.3732558039445849,0.006515204292686756,-0.006515204292686756,-0.3732558039445849,623.7904104097686,67.07814325229404)" filter="url(#llleaves-blur-2)" opacity="0.57"></path><path d="M-13 601H37C65 601 87 623 87 651H37C9 651 -13 629 -13 601Z " transform="matrix(0.018010194180075132,-0.5157444822151194,0.5157444822151194,0.018010194180075132,-286.52242305132745,633.8081642852324)" opacity="0.79"></path><path d="M93 732H143C171 732 193 754 193 782H143C115 782 93 760 93 732Z " transform="matrix(-0.044047918529423156,-0.5034700126190768,0.5034700126190768,-0.044047918529423156,-231.82794720293356,862.3404861313013)" opacity="0.78"></path><path d="M474 119H524C552 119 574 141 574 169H524C496 169 474 147 474 119Z " transform="matrix(-0.359350070025319,0.050503358791721256,-0.050503358791721256,-0.359350070025319,719.5719203592748,169.282650076784)" filter="url(#llleaves-blur-2)" opacity="0.56"></path><path d="M219 139H269C297 139 319 161 319 189H269C241 189 219 167 219 139Z " transform="matrix(-0.25779657515902366,-0.3821991401470291,0.3821991401470291,-0.25779657515902366,275.66661973366456,309.09020702563066)" opacity="0.71"></path><path d="M372 303H422C450 303 472 325 472 353H422C394 353 372 331 372 303Z " transform="matrix(-0.3692062264346114,-0.1963104328234265,0.1963104328234265,-0.3692062264346114,513.4152055893221,531.9426449220384)" opacity="0.64"></path><path d="M84 432H134C162 432 184 454 184 482H134C106 482 84 460 84 432Z " transform="matrix(-0.044047918529423156,-0.5034700126190768,0.5034700126190768,-0.044047918529423156,-90.18337468397536,544.5948804589027)" opacity="0.78"></path><path d="M139 625H189C217 625 239 647 239 675H189C161 675 139 653 139 625Z " transform="matrix(-0.09459987750530961,-0.48667417973023824,0.48667417973023824,-0.09459987750530961,-109.45883997615141,803.4713403474663)" opacity="0.76"></path><path d="M578 731H628C656 731 678 753 678 781H628C600 781 578 759 578 731Z " transform="matrix(-0.21218205797438602,0.21972095307494494,-0.21972095307494494,-0.21218205797438602,927.3593729325728,778.4248772975704)" filter="url(#llleaves-blur-2)" opacity="0.47"></path><path d="M107 175H157C185 175 207 197 207 225H157C129 225 107 203 107 175Z " transform="matrix(-0.06123718395673955,-0.4987368404172962,0.4987368404172962,-0.06123718395673955,66.86686979774888,290.5491207368634)" opacity="0.77"></path><path d="M55 651H105C133 651 155 673 155 701H105C77 701 55 679 55 651Z " transform="matrix(-0.008905728248553254,-0.5102088296535867,0.5102088296535867,-0.008905728248553254,-238.96606737972655,735.5921994096486)" opacity="0.78"></path><path d="M510 24H560C588 24 610 46 610 74H560C532 74 510 52 510 24Z " transform="matrix(-0.30504889507864535,0.142246635886893,-0.142246635886893,-0.30504889507864535,737.7974664024991,-15.710720237806456)" filter="url(#llleaves-blur-2)" opacity="0.52"></path><path d="M346 120H396C424 120 446 142 446 170H396C368 170 346 148 346 120Z " transform="matrix(-0.36398056152260283,-0.21014427517486595,0.21014427517486595,-0.36398056152260283,509.6653824625952,280.99431439002433)" opacity="0.64"></path><path d="M646 671H696C724 671 746 693 746 721H696C668 721 646 699 646 671Z " transform="matrix(-0.08183640154495317,0.2518665457765659,-0.2518665457765659,-0.08183640154495317,928.2572513357773,577.6590196147976)" filter="url(#llleaves-blur-3)" opacity="0.40"></path><path d="M267 420H317C345 420 367 442 367 470H317C289 470 267 448 267 420Z " transform="matrix(-0.24584676428046817,-0.3934370657310491,0.3934370657310491,-0.24584676428046817,219.85393002659157,679.121359941551)" opacity="0.71"></path><path d="M609 25H659C687 25 709 47 709 75H659C631 75 609 53 609 25Z " transform="matrix(-0.1772952987635729,0.23527880812184282,-0.23527880812184282,-0.1772952987635729,787.6015422912867,-96.1839696141158)" filter="url(#llleaves-blur-3)" opacity="0.45"></path><path d="M532 450H582C610 450 632 472 632 500H582C554 500 532 478 532 450Z " transform="matrix(-0.3047894610437942,0.14212565980965586,-0.14212565980965586,-0.3047894610437942,826.8971547370747,537.0578599865826)" filter="url(#llleaves-blur-2)" opacity="0.52"></path><path d="M363 734H413C441 734 463 756 463 784H413C385 784 363 762 363 734Z " transform="matrix(-0.3570095937349155,-0.2318447410158125,0.2318447410158125,-0.3570095937349155,384.4748037815184,1125.7221596843315)" opacity="0.65"></path><path d="M2 27H52C80 27 102 49 102 77H52C24 77 2 55 2 27Z " transform="matrix(-0.3665623761696875,-0.2031888430328925,0.2031888430328925,-0.3665623761696875,60.49542372311334,81.62706339853416)" opacity="0.64"></path></g></svg>