<svg xmlns="http://www.w3.org/2000/svg" version="1.1" xmlns:xlink="http://www.w3.org/1999/xlink" xmlns:svgjs="http://svgjs.dev/svgjs" viewBox="0 0 800 800"><defs><linearGradient x1="50%" y1="0%" x2="50%" y2="100%" id="ssscribble-grad"><stop stop-color="hsl(212, 77%, 41%)" stop-opacity="1" offset="0%"></stop><stop stop-color="hsl(88, 45%, 17%)" stop-opacity="1" offset="100%"></stop></linearGradient></defs><g fill="none" stroke-width="1.5" stroke="url(#ssscribble-grad)" stroke-linecap="round"><path d="M559.41 618.12C635.17 644.69 782.3 662.28 922.74 664.24 995.44 657.7 964.44 622.88 851.01 556.91 699.51 489.78 568.72 421.01 496.42 389.84 494.33 431.5 549.74 553.67 631.54 731.47 722.68 879.34 789.01 927.06 820.13 828.49 821.35 654.97 791.64 528.56 744.45 574.07 683.09 773.44 621.14 968.51 567.39 973.93 511.82 783.46 469.33 585.13 442.75 599.07 411.47 907.3 422.64 643.02 444.73 563.86 445.86 736.2 431.8 906.99 389.62 943.33 317.54 826.04 213.04 636.88 87.07 486.17 -29.55 429.16 -116.48 472.81 -142.06 564.89 -97.44 673.21 9.5 743.3 141.52 765.56 235.47 752.74 251.34 711.04 168.39 662.21 17.68 604.98 -134.82 559.25 -210.58 532.67 -168.87 506.08 -32.58 499.91 126.2 507.01 236.87 505.72 254.29 499.08 184.65 465.85 59.88 397.55 -58.7 283.7 -126.94 134.43 -129.74 1.37 -65.67 -80.46 38.62 -58.32 163.38 57.53 276.65 215.18 362.88 304.83 423.12 240.85 453.85 46.25 465.78 -145.59 458.89 -93.55 459.14 140.05 491.05 -170.87 517.63 -184.89 558.86 18.77 611.32 219.54 661.07 224.44 715.67 44.52 765.49 -135.39 799.63 -161.45 812.67 -11.22 793.4 189.97 748.13 316.23 673.02 300.04 583.09 187.01 513.63 44.04 481.07 -39.96 511.55 -40.67 607.47 31.46 749.89 143.99 894.14 257.19 983.27 369.22 980.97 452.39 880.56 509.06 732.03 557.23 601.13 591.54 559.41 618.12Q559.41 618.12 559.41 618.12" opacity="0.40"></path><path d="M532.01 433.15C599.52 457.83 732.25 458.39 868.12 436.76 956.42 416.52 958.65 380.9 881.03 345.24 751.45 336.8 615.26 363.42 511.08 446.11 457.45 571.84 460.32 725.19 503.7 852.43 576.67 892.38 650.39 821.83 707.93 665.28 751.85 527.3 768.69 498.16 763.28 625.86 743.8 830.48 713.01 967.1 679.36 916.07 642.07 720.95 609.25 549.88 584.57 571.71 559.89 773.3 544.52 954.52 535.26 952.35 522.37 774.55 508.26 574.52 484.97 504.23 447.61 601.21 390.12 775.11 308.16 897.35 212.59 899.89 103.43 782.6 -1.87 618.95 -77.6 470.1 -109.73 394.04 -81.8 390.59 -3.32 445.7 110.73 520.64 222.21 584.3 281.75 641.61 265.47 668.78 167.65 670.96 22.25 665.35 -115.47 647.15 -182.98 622.47 -148.6 597.79 -28.85 567.8 120.1 526.88 240.68 478.16 288.52 406.1 256.85 306.02 161.37 199.6 46.46 84.01 -46.88 -9.15 -99.21 -43.76 -92.54 -3.16 -37.1 113.32 54.9 244.63 160.28 332.68 259.58 304.48 351.39 156.57 421.34 -39.46 470.77 -154.56 507.03 -102.42 531.31 83.54 550.92 251.84 566.63 244.56 585.24 58.38 609.92 -143.23 634.6 -165.15 664.18 10.87 695.01 215.55 721.95 276.16 742.58 153.61 749.1 -32.91 742.44 -142.55 713.15 -91.3 659.38 72.36 598.12 254.61 528.17 354.44 468.49 346.84 445.39 251.95 467.96 134.04 545.98 46.35 665.02 1.68 802.06 15.71 915.65 66.92 965.42 145.36 931.65 225.87 820.62 292.65 681.19 360.82 566.42 408.46 532 433.14Q532.01 433.15 532.01 433.15" opacity="0.78"></path><path d="M504.51 209.07C563.65 231.85 681.56 243.18 810.04 249.12 908.53 262.33 939.41 284.64 898.53 330.22 800.63 399.55 676.28 502.42 559.22 630.93 468.83 748.33 422.42 834.74 417.45 849.22 449.08 782.83 499.9 651.14 553.42 514.25 610.29 458.92 652.18 525.16 676.04 697.8 691.99 874.45 692.29 945.03 681.34 849.24 667.19 659.11 647.47 515.77 624.69 544.21 601.91 727.85 577.14 907.92 548.33 943.69 516.31 814.35 474.57 617.9 419.14 488.5 355.8 496.9 276.39 621.56 184.41 771.55 95.77 871.44 12.25 865.91 -49.23 772.64 -74.12 627.17 -54.72 488.45 11.94 391.27 105.28 340.33 209.2 336.33 290.4 357.07 314.57 398.34 270.73 434.56 163.45 454.15 26.18 474.16 -96.34 473.41 -155.48 450.62 -127.29 427.84 -23.47 384.11 113.11 321.14 237.13 258.58 308.22 180.92 312.04 100.17 252.49 39.94 157.44 6.43 59.85 22.26 -22.22 84.33 -62.91 190.34 -59.56 305.94 -17.86 369.36 52.08 347.88 133.75 224.27 224.22 50.55 306.84 -94.53 375.72 -119.62 439.03 -6.92 488.23 176.55 525.83 297.1 560.56 252.54 588.55 67.85 611.33 -115.78 634.11 -144.22 650.61 3.72 658.84 202.65 664.21 307.23 656.45 249.62 632.63 89.67 603.22 -66.27 558.12 -112.08 502.77 -33.02 456.2 127.57 418.97 286.28 407.12 382.53 433.63 397.9 501.33 344.2 607.13 261.92 728.44 168.52 843.92 103.17 920.17 73.32 933.05 67.22 874.93 86.35 759.71 116.11 631.9 153.14 532.7 186.29 504.51 209.07Q504.51 209.07 504.51 209.07" opacity="0.51"></path><path d="M476.93 209.3C527.8 230.19 630.73 262.17 749.24 307.72 852.31 357.57 905.69 427.08 899.13 516.28 838.04 605.61 739.29 699.71 628.57 776.78 522.23 811.94 441.41 793.12 392.82 711.77 375.79 599.42 385.47 485.36 410.49 426.33 449.87 464.47 488.15 596.23 517.96 770.86 547.75 895.49 564.56 901.9 567.9 775.61 569.91 598.83 560.28 482.9 539.4 516.6 518.52 682.31 487.36 856.82 445.98 923.23 403.25 845.2 348.45 674.49 282.46 514.85 216.47 443.97 143.8 488.79 72.23 606.8 -4.8 786.83 14.27 724.18 126.9 553.56 215.87 439.91 295.89 356.33 341.67 303.67 332.93 272.59 267.67 259.31 156.53 251.23 29.97 249.04 -77.19 240.04 -128.06 219.16 -105.12 198.27 -16.46 166.49 105.96 129.3 227.71 98 314.33 73.29 348.23 68.18 325.99 84.64 261.5 133.83 177.85 215.3 88.56 299.88 19.9 377.58 -17.9 411.85 -26.59 374.65 -3.99 263.9 40.01 105.13 101.29 -34.62 168.16 -98.17 231.82 -42.6 297.75 101.73 354.08 260.55 398.62 330.52 442.4 256.05 475.04 77.31 495.93 -88.39 516.81 -122.09 524.94 -1.93 520.54 182.91 515.4 317.25 497.06 322.73 467.31 213.4 423.6 -2.43 370.13 74.84 409.88 283.97 475.07 392.69 568.49 441.49 679.53 438.52 784.92 393.63 868.14 333.93 905.69 280.78 887.1 227.78 812.36 196.25 698.67 185.79 584.29 179.63 499.87 188.42 476.93 209.3Q476.93 209.3 476.93 209.3" opacity="0.27"></path><path d="M449.51 433.77C493.31 452.75 581.95 489.15 688.49 540.06 790.42 589.01 858.49 646.95 880.07 703.92 855.13 744.45 789.69 764.38 700.72 748.97 599.91 700.9 506.32 616.93 430.89 513.64 374.79 431.59 342.7 392.79 329.89 427.63 333.85 534.65 346.64 686.87 360.82 826.08 380.44 887.29 394.09 839.56 398.21 697.99 402.92 541.25 396.42 451.62 377.43 489.21 358.45 637.11 327.88 802.12 287.37 890.93 247.44 862.09 199.26 732.95 146.73 573.45 99.65 450.06 55.6 412.71 22.38 459.69 5.93 567.32 10.77 683.02 41.98 766.54 92.53 804.83 163.61 786.73 244.65 729 313.86 641.96 362.27 549.64 373.29 467.64 337.79 388.93 258.92 328.92 149.67 286.07 35.79 247.15 -56.68 219.33 -100.48 200.34 -83.02 181.36 -9.38 172.11 97.37 175.23 212.18 182.28 307.18 207.75 364.53 253.56 377.17 302.66 348.46 363.72 291.95 421.49 215.89 449.96 141.79 440.81 82.36 377.63 37.49 269.23 17.53 131.02 19.71 3.63 38.86 -63.12 71.77 -42.79 110.86 66.67 156.73 212.26 200.83 330.6 238.58 352.1 277.42 255.96 307.32 87.11 326.3 -60.78 345.29 -98.37 352.46 -4.9 349.42 159.17 347.48 308.06 337.91 366.6 324.94 319.3 318.75 194 317.11 58.82 327.22 -28.43 354.29 -43.5 401.51 17.8 471.26 124.74 555.58 252.9 652.19 364.14 748.02 441.46 824.3 486.14 870.03 497.47 871.31 489.84 827.87 465.77 743.68 442.36 636.2 429.22 536.76 414.11 466.97 414.78 449.51 433.77Q449.51 433.77 449.51 433.77" opacity="0.35"></path><path d="M422 618.42C537.43 652.59 728.57 693.7 841.27 691.63 817.66 637.58 676.88 498.44 515.7 365.63 376.73 402.27 302.65 632.89 272.48 847.38 269.13 768.25 261.59 491.26 227.41 461.7 193.24 749.33 135.68 860.45 79.8 647.54 50.75 408.52 71.5 422.03 165.68 586.41 282.07 741.55 386.61 749.76 385.17 671.48 247.42 546.58 42.43 450.26 -72.99 416.08 -0.03 381.89 197.26 413.09 361.72 478.77 404.86 497.85 328.57 436.34 217.33 236.44 108.95 27.25 66 -22.54 77.11 191.39 115.36 379.28 164.1 254.39 198.28 -33.24 232.45 -3.78 248.82 287.06 269.79 391.29 317.9 201.86 414.19 7.47 567.35 15.6 723.38 193.2 835.92 385.68 817.82 498.95 678.41 560.24 494.97 584.24 422 618.42Q422 618.42 422 618.42" opacity="0.59"></path><path d="M394.51 546.34C489.67 576.71 657.22 556.83 783.78 481.14 817.78 406.39 742.76 328 617.35 347.69 473.51 502.37 361.46 730.71 290.55 825.81 238.16 678.42 203.73 439.77 173.36 434.21 142.98 688.6 119.53 840.46 119.28 717.87 137.55 470.11 202.2 348.5 306.22 399.18 391.82 551.4 434.62 665.12 378.35 697.57 229.54 685.23 49.67 643.3 -45.48 612.92 10.58 582.54 177.37 566.6 342.2 526.31 432.96 441.24 422.5 280.13 354.57 88.08 253.82 -2.43 180.45 86.91 151.04 312.4 137.13 412.77 151.93 248.67 182.31 -5.73 212.68 -0.27 255.75 250.67 322.3 420.37 404.34 347.57 525.11 151.44 665.68 36.56 773.43 56.68 816.12 182.47 747.66 309.86 605.1 438.2 450.61 515.95 394.5 546.33Q394.51 546.34 394.51 546.34" opacity="0.09"></path><path d="M367 302.15C443.32 328.72 584 310.91 710.37 275.15 784.14 271.85 772.23 319.3 701.43 458.96 592.68 637.51 484.44 782.55 401.33 760.53 323.57 582.4 271.77 392.74 245.19 406.76 218.61 626.22 219.78 799.02 251.47 765.62 288.52 571.78 355.28 383.61 429.19 309.11 465.16 349.02 448.88 440.28 355.63 508.62 209.77 571.49 58.32 586.11 -17.99 559.54 23.1 532.96 157.89 467.69 309.99 358.76 450.4 177.99 371.6 156.53 302.6 410.88 266.07 424.79 260.75 241.22 287.33 21.76 313.9 7.74 369.85 208.17 452.43 405.78 536.65 447.28 639.82 330.43 732.63 186.72 780.34 81.89 762.8 75.93 664.76 125.29 532.16 207.11 408.13 275.56 366.99 302.14Q367 302.15 367 302.15" opacity="0.76"></path><path d="M339.44 172.95C398.27 195.73 510.39 222.51 624.79 271.88 717.86 344.28 753.96 465.74 738.56 618.01 685.55 732.28 613.65 763.24 547.61 659.38 477.11 486.85 426.41 350.68 403.63 379.12 380.85 562.76 388.14 737.38 419.16 776.5 445.72 672.07 482.06 500.04 505.22 360.01 490.76 278.63 430.49 268.1 320.73 285.31 189.62 323.95 68.27 341.26 9.44 318.48 37.97 295.7 141.24 234.99 270.65 156.86 393.41 100.17 474.87 75.15 510.3 126.67 495.72 310.77 434.65 324.69 454.41 49.12 477.19 20.68 526.64 166.08 592.82 355.31 652.12 475.87 710.73 469.08 743.64 384.67 738.07 262.26 680.78 176.35 574.72 143.43 462.01 133.54 367.97 150.17 339.44 172.95Q339.44 172.95 339.44 172.95" opacity="0.77"></path><path d="M312 310.61C355.78 329.59 439.89 382.14 533.76 463.85 626.19 544.7 687.42 640.35 712.29 714.25 711.73 731.13 686.84 671.51 653.48 537.34 612.68 398.36 578.25 314.11 559.27 351.7 540.28 499.6 538.54 659.16 546.45 743.58 546.91 730.02 542.16 631.68 517.84 508.37 468.09 382.12 386.71 293.74 280.38 243.74 172.58 211.24 80.78 192.35 37 173.37 54.49 154.39 127.81 137.1 228.32 136.7 338.06 153.8 431.11 212.55 495.55 313.91 537.19 412.34 556.48 490.55 565.7 490.19 566.76 391.86 573.02 224.6 592.01 76.7 610.99 39.11 640.9 131.06 672.74 283.96 696.42 432.04 706.76 511.79 690 519.8 650.45 470.78 577.53 404.76 481.71 356.81 395.12 308 329.49 291.63 312 310.61Q312 310.61 312 310.61" opacity="0.85"></path><path d="M284.51 553.25C379.67 583.63 532.14 673.59 624.94 675.58 673.87 549.12 657.27 329.77 626.9 324.21 596.52 578.62 558.12 723.11 469.37 649.7 336.76 464.65 159.67 324.94 64.51 294.56 120.59 264.18 284.49 348.9 425.9 494.13 536.4 527.73 592.02 358.62 622.4 104.21 652.77 109.77 652.16 353.74 581.46 520.01 479.87 557.83 340.59 522.87 284.51 553.25Q284.51 553.25 284.51 553.25" opacity="0.94"></path><path d="M256.97 615.69C315.95 638.48 416.92 616.83 495.36 513.95 567.53 390.21 591.05 268.22 568.27 296.66 545.49 480.33 480.71 643.76 378.69 684.18 270.39 639.98 150.95 562.41 91.97 539.62 120.35 516.84 222.05 553.16 327.02 567.5 434.46 497.23 506.64 315.33 529.43 131.66 552.21 103.22 521.28 243.67 443.69 397.27 368.59 530.02 285.35 592.91 256.97 615.69Q256.97 615.69 256.97 615.69" opacity="0.17"></path><path d="M229.51 424.64C324.65 455.01 446.81 274.74 416.44 269.21 386.06 523.62 214.65 650.98 119.51 620.61 175.59 590.23 333.77 413.62 364.15 159.21 394.52 164.74 285.59 394.26 229.51 424.64Q229.51 424.64 229.51 424.64" opacity="0.28"></path></g></svg>